<svg width="29" height="28" viewBox="0 0 29 28" fill="none" xmlns="http://www.w3.org/2000/svg">
<path d="M2 26.1766H26.8187M2 26.1766V19.9719L14.4094 7.56258M2 26.1766H8.20468L20.614 13.7672M14.4094 7.56258L18.859 3.1128L18.8618 3.11016C19.4742 2.49764 19.7811 2.19083 20.1347 2.07592C20.4464 1.97469 20.7819 1.97469 21.0935 2.07592C21.4469 2.19076 21.7534 2.4972 22.365 3.10886L25.0637 5.80759C25.678 6.42188 25.9853 6.72917 26.1004 7.08335C26.2017 7.39488 26.2015 7.73046 26.1004 8.04202C25.9854 8.39593 25.6786 8.70275 25.0651 9.31616L25.0637 9.31748L20.614 13.7672M14.4094 7.56258L20.614 13.7672" stroke="white" stroke-width="3" stroke-linecap="round" stroke-linejoin="round"/>
</svg>
